<?xml version="1.0" encoding="utf-8" standalone="no"?>
<!DOCTYPE svg PUBLIC "-//W3C//DTD SVG 1.1//EN"
  "http://www.w3.org/Graphics/SVG/1.1/DTD/svg11.dtd">
<svg xmlns:xlink="http://www.w3.org/1999/xlink" width="978.839527pt" height="563.555966pt" viewBox="0 0 978.839527 563.555966" xmlns="http://www.w3.org/2000/svg" version="1.1">
 <metadata>
  <rdf:RDF xmlns:dc="http://purl.org/dc/elements/1.1/" xmlns:cc="http://creativecommons.org/ns#" xmlns:rdf="http://www.w3.org/1999/02/22-rdf-syntax-ns#">
   <cc:Work>
    <dc:type rdf:resource="http://purl.org/dc/dcmitype/StillImage"/>
    <dc:date>2024-11-09T23:00:25.254789</dc:date>
    <dc:format>image/svg+xml</dc:format>
    <dc:creator>
     <cc:Agent>
      <dc:title>Matplotlib v3.9.2, https://matplotlib.org/</dc:title>
     </cc:Agent>
    </dc:creator>
   </cc:Work>
  </rdf:RDF>
 </metadata>
 <defs>
  <style type="text/css">*{stroke-linejoin: round; stroke-linecap: butt}</style>
 </defs>
 <g id="figure_1">
  <g id="patch_1">
   <path d="M 0 563.555966 
L 978.839527 563.555966 
L 978.839527 0 
L 0 0 
z
" style="fill: #ffffff"/>
  </g>
  <g id="axes_1">
   <g id="patch_2">
    <path d="M 78.839527 485.28 
L 971.639527 485.28 
L 971.639527 7.2 
L 78.839527 7.2 
z
" style="fill: #ffffff"/>
   </g>
   <g id="matplotlib.axis_1">
    <g id="xtick_1">
     <g id="line2d_1">
      <path d="M 119.421345 485.28 
L 119.421345 7.2 
" clip-path="url(#p221f6b7276)" style="fill: none; stroke: #b0b0b0; stroke-width: 0.8; stroke-linecap: square"/>
     </g>
     <g id="line2d_2">
      <defs>
       <path id="mda5c613089" d="M 0 0 
L 0 3.5 
" style="stroke: #000000; stroke-width: 0.8"/>
      </defs>
      <g>
       <use xlink:href="#mda5c613089" x="119.421345" y="485.28" style="stroke: #000000; stroke-width: 0.8"/>
      </g>
     </g>
     <g id="text_1">
      <!-- $\mathdefault{0}$ -->
      <g transform="translate(114.852297 507.616997) scale(0.2 -0.2)">
       <defs>
        <path id="CMR17-30" d="M 2688 2025 
C 2688 2416 2682 3080 2413 3591 
C 2176 4039 1798 4198 1466 4198 
C 1158 4198 768 4058 525 3597 
C 269 3118 243 2524 243 2025 
C 243 1661 250 1106 448 619 
C 723 -39 1216 -128 1466 -128 
C 1760 -128 2208 -7 2470 600 
C 2662 1042 2688 1559 2688 2025 
z
M 1466 -26 
C 1056 -26 813 325 723 812 
C 653 1188 653 1738 653 2096 
C 653 2588 653 2997 736 3387 
C 858 3929 1216 4096 1466 4096 
C 1728 4096 2067 3923 2189 3400 
C 2272 3036 2278 2607 2278 2096 
C 2278 1680 2278 1169 2202 792 
C 2067 95 1690 -26 1466 -26 
z
" transform="scale(0.015625)"/>
       </defs>
       <use xlink:href="#CMR17-30" transform="scale(0.996264)"/>
      </g>
     </g>
    </g>
    <g id="xtick_2">
     <g id="line2d_3">
      <path d="M 281.748618 485.28 
L 281.748618 7.2 
" clip-path="url(#p221f6b7276)" style="fill: none; stroke: #b0b0b0; stroke-width: 0.8; stroke-linecap: square"/>
     </g>
     <g id="line2d_4">
      <g>
       <use xlink:href="#mda5c613089" x="281.748618" y="485.28" style="stroke: #000000; stroke-width: 0.8"/>
      </g>
     </g>
     <g id="text_2">
      <!-- $\mathdefault{100}$ -->
      <g transform="translate(268.041475 507.616997) scale(0.2 -0.2)">
       <defs>
        <path id="CMR17-31" d="M 1702 4058 
C 1702 4192 1696 4192 1606 4192 
C 1357 3916 979 3827 621 3827 
C 602 3827 570 3827 563 3808 
C 557 3795 557 3782 557 3648 
C 755 3648 1088 3686 1344 3839 
L 1344 461 
C 1344 236 1331 160 781 160 
L 589 160 
L 589 0 
C 896 0 1216 0 1523 0 
C 1830 0 2150 0 2458 0 
L 2458 160 
L 2266 160 
C 1715 160 1702 230 1702 458 
L 1702 4058 
z
" transform="scale(0.015625)"/>
       </defs>
       <use xlink:href="#CMR17-31" transform="scale(0.996264)"/>
       <use xlink:href="#CMR17-30" transform="translate(45.690477 0) scale(0.996264)"/>
       <use xlink:href="#CMR17-30" transform="translate(91.380954 0) scale(0.996264)"/>
      </g>
     </g>
    </g>
    <g id="xtick_3">
     <g id="line2d_5">
      <path d="M 444.07589 485.28 
L 444.07589 7.2 
" clip-path="url(#p221f6b7276)" style="fill: none; stroke: #b0b0b0; stroke-width: 0.8; stroke-linecap: square"/>
     </g>
     <g id="line2d_6">
      <g>
       <use xlink:href="#mda5c613089" x="444.07589" y="485.28" style="stroke: #000000; stroke-width: 0.8"/>
      </g>
     </g>
     <g id="text_3">
      <!-- $\mathdefault{200}$ -->
      <g transform="translate(430.368747 507.616997) scale(0.2 -0.2)">
       <defs>
        <path id="CMR17-32" d="M 2669 989 
L 2554 989 
C 2490 536 2438 459 2413 420 
C 2381 369 1920 369 1830 369 
L 602 369 
C 832 619 1280 1072 1824 1597 
C 2214 1967 2669 2402 2669 3035 
C 2669 3790 2067 4224 1395 4224 
C 691 4224 262 3604 262 3030 
C 262 2780 448 2748 525 2748 
C 589 2748 781 2787 781 3010 
C 781 3207 614 3264 525 3264 
C 486 3264 448 3258 422 3245 
C 544 3790 915 4058 1306 4058 
C 1862 4058 2227 3617 2227 3035 
C 2227 2479 1901 2000 1536 1584 
L 262 146 
L 262 0 
L 2515 0 
L 2669 989 
z
" transform="scale(0.015625)"/>
       </defs>
       <use xlink:href="#CMR17-32" transform="scale(0.996264)"/>
       <use xlink:href="#CMR17-30" transform="translate(45.690477 0) scale(0.996264)"/>
       <use xlink:href="#CMR17-30" transform="translate(91.380954 0) scale(0.996264)"/>
      </g>
     </g>
    </g>
    <g id="xtick_4">
     <g id="line2d_7">
      <path d="M 606.403163 485.28 
L 606.403163 7.2 
" clip-path="url(#p221f6b7276)" style="fill: none; stroke: #b0b0b0; stroke-width: 0.8; stroke-linecap: square"/>
     </g>
     <g id="line2d_8">
      <g>
       <use xlink:href="#mda5c613089" x="606.403163" y="485.28" style="stroke: #000000; stroke-width: 0.8"/>
      </g>
     </g>
     <g id="text_4">
      <!-- $\mathdefault{300}$ -->
      <g transform="translate(592.69602 507.616997) scale(0.2 -0.2)">
       <defs>
        <path id="CMR17-33" d="M 1414 2157 
C 1984 2157 2234 1662 2234 1090 
C 2234 320 1824 25 1453 25 
C 1114 25 563 194 390 693 
C 422 680 454 680 486 680 
C 640 680 755 782 755 948 
C 755 1133 614 1216 486 1216 
C 378 1216 211 1165 211 926 
C 211 335 787 -128 1466 -128 
C 2176 -128 2720 430 2720 1085 
C 2720 1707 2208 2157 1600 2227 
C 2086 2328 2554 2756 2554 3329 
C 2554 3820 2048 4179 1472 4179 
C 890 4179 378 3829 378 3329 
C 378 3110 544 3072 627 3072 
C 762 3072 877 3155 877 3321 
C 877 3486 762 3569 627 3569 
C 602 3569 570 3569 544 3557 
C 730 3959 1235 4032 1459 4032 
C 1683 4032 2106 3925 2106 3320 
C 2106 3143 2080 2828 1862 2550 
C 1670 2304 1453 2304 1242 2284 
C 1210 2284 1062 2269 1037 2269 
C 992 2263 966 2257 966 2208 
C 966 2163 973 2157 1101 2157 
L 1414 2157 
z
" transform="scale(0.015625)"/>
       </defs>
       <use xlink:href="#CMR17-33" transform="scale(0.996264)"/>
       <use xlink:href="#CMR17-30" transform="translate(45.690477 0) scale(0.996264)"/>
       <use xlink:href="#CMR17-30" transform="translate(91.380954 0) scale(0.996264)"/>
      </g>
     </g>
    </g>
    <g id="xtick_5">
     <g id="line2d_9">
      <path d="M 768.730436 485.28 
L 768.730436 7.2 
" clip-path="url(#p221f6b7276)" style="fill: none; stroke: #b0b0b0; stroke-width: 0.8; stroke-linecap: square"/>
     </g>
     <g id="line2d_10">
      <g>
       <use xlink:href="#mda5c613089" x="768.730436" y="485.28" style="stroke: #000000; stroke-width: 0.8"/>
      </g>
     </g>
     <g id="text_5">
      <!-- $\mathdefault{400}$ -->
      <g transform="translate(755.023293 507.616997) scale(0.2 -0.2)">
       <defs>
        <path id="CMR17-34" d="M 2150 4122 
C 2150 4256 2144 4256 2029 4256 
L 128 1254 
L 128 1088 
L 1779 1088 
L 1779 457 
C 1779 224 1766 160 1318 160 
L 1197 160 
L 1197 0 
C 1402 0 1747 0 1965 0 
C 2182 0 2528 0 2733 0 
L 2733 160 
L 2611 160 
C 2163 160 2150 224 2150 457 
L 2150 1088 
L 2803 1088 
L 2803 1254 
L 2150 1254 
L 2150 4122 
z
M 1798 3703 
L 1798 1254 
L 256 1254 
L 1798 3703 
z
" transform="scale(0.015625)"/>
       </defs>
       <use xlink:href="#CMR17-34" transform="scale(0.996264)"/>
       <use xlink:href="#CMR17-30" transform="translate(45.690477 0) scale(0.996264)"/>
       <use xlink:href="#CMR17-30" transform="translate(91.380954 0) scale(0.996264)"/>
      </g>
     </g>
    </g>
    <g id="xtick_6">
     <g id="line2d_11">
      <path d="M 931.057709 485.28 
L 931.057709 7.2 
" clip-path="url(#p221f6b7276)" style="fill: none; stroke: #b0b0b0; stroke-width: 0.8; stroke-linecap: square"/>
     </g>
     <g id="line2d_12">
      <g>
       <use xlink:href="#mda5c613089" x="931.057709" y="485.28" style="stroke: #000000; stroke-width: 0.8"/>
      </g>
     </g>
     <g id="text_6">
      <!-- $\mathdefault{500}$ -->
      <g transform="translate(917.350566 507.616997) scale(0.2 -0.2)">
       <defs>
        <path id="CMR17-35" d="M 730 3692 
C 794 3666 1056 3584 1325 3584 
C 1920 3584 2246 3911 2432 4100 
C 2432 4157 2432 4192 2394 4192 
C 2387 4192 2374 4192 2323 4163 
C 2099 4058 1837 3973 1517 3973 
C 1325 3973 1037 3999 723 4139 
C 653 4171 640 4171 634 4171 
C 602 4171 595 4164 595 4037 
L 595 2203 
C 595 2089 595 2057 659 2057 
C 691 2057 704 2070 736 2114 
C 941 2401 1222 2522 1542 2522 
C 1766 2522 2246 2382 2246 1289 
C 2246 1085 2246 715 2054 421 
C 1894 159 1645 25 1370 25 
C 947 25 518 320 403 814 
C 429 807 480 795 506 795 
C 589 795 749 840 749 1038 
C 749 1210 627 1280 506 1280 
C 358 1280 262 1190 262 1011 
C 262 454 704 -128 1382 -128 
C 2042 -128 2669 440 2669 1264 
C 2669 2030 2170 2624 1549 2624 
C 1222 2624 947 2503 730 2274 
L 730 3692 
z
" transform="scale(0.015625)"/>
       </defs>
       <use xlink:href="#CMR17-35" transform="scale(0.996264)"/>
       <use xlink:href="#CMR17-30" transform="translate(45.690477 0) scale(0.996264)"/>
       <use xlink:href="#CMR17-30" transform="translate(91.380954 0) scale(0.996264)"/>
      </g>
     </g>
    </g>
    <g id="text_7">
     <!-- $I_\text{POC}\:[\unit{A}]$ -->
     <g transform="translate(484.422369 550.150158) scale(0.25 -0.25)">
      <defs>
       <path id="CMMI12-49" d="M 2355 3880 
C 2413 4103 2426 4167 2893 4167 
C 3034 4167 3085 4167 3085 4288 
C 3085 4352 3014 4352 2995 4352 
C 2880 4352 2739 4352 2624 4352 
L 1837 4352 
C 1709 4352 1562 4352 1434 4352 
C 1382 4352 1312 4352 1312 4231 
C 1312 4167 1363 4167 1491 4167 
C 1888 4167 1888 4116 1888 4046 
C 1888 4002 1875 3963 1862 3906 
L 998 472 
C 941 249 928 185 461 185 
C 320 185 262 185 262 64 
C 262 0 326 0 358 0 
C 474 0 614 0 730 0 
L 1517 0 
C 1645 0 1786 0 1914 0 
C 1965 0 2042 0 2042 115 
C 2042 185 2003 185 1862 185 
C 1466 185 1466 236 1466 312 
C 1466 325 1466 357 1491 459 
L 2355 3880 
z
" transform="scale(0.015625)"/>
       <path id="CMR17-50" d="M 1267 2042 
L 2291 2042 
C 3117 2042 3718 2578 3718 3184 
C 3718 3791 3130 4352 2291 4352 
L 333 4352 
L 333 4186 
C 774 4186 845 4186 845 3899 
L 845 446 
C 845 160 774 160 333 160 
L 333 0 
C 518 0 858 0 1056 0 
C 1254 0 1594 0 1779 0 
L 1779 160 
C 1338 160 1267 160 1267 446 
L 1267 2042 
z
M 1254 2176 
L 1254 3938 
C 1254 4155 1267 4186 1523 4186 
L 2170 4186 
C 2995 4186 3232 3714 3232 3184 
C 3232 2604 2950 2176 2170 2176 
L 1254 2176 
z
" transform="scale(0.015625)"/>
       <path id="CMR17-4f" d="M 4307 2135 
C 4307 3437 3366 4416 2304 4416 
C 1216 4416 294 3424 294 2135 
C 294 845 1229 -128 2298 -128 
C 3392 -128 4307 864 4307 2135 
z
M 2304 -13 
C 1574 -13 781 711 781 2217 
C 781 3716 1651 4301 2298 4301 
C 2976 4301 3821 3698 3821 2217 
C 3821 686 3008 -13 2304 -13 
z
" transform="scale(0.015625)"/>
       <path id="CMR17-43" d="M 3974 4289 
C 3974 4403 3968 4410 3930 4410 
C 3904 4410 3898 4403 3853 4327 
L 3571 3792 
C 3258 4187 2874 4416 2381 4416 
C 1286 4416 294 3456 294 2148 
C 294 826 1286 -128 2387 -128 
C 3366 -128 3974 730 3974 1461 
C 3974 1524 3974 1550 3917 1550 
C 3866 1550 3866 1531 3859 1474 
C 3808 585 3168 38 2477 38 
C 1824 38 781 495 781 2147 
C 781 3805 1843 4250 2464 4250 
C 3187 4250 3712 3628 3834 2745 
C 3846 2668 3846 2655 3904 2655 
C 3974 2655 3974 2668 3974 2783 
L 3974 4289 
z
" transform="scale(0.015625)"/>
       <path id="CMR17-5b" d="M 1504 -1600 
L 1504 -1377 
L 902 -1377 
L 902 4544 
L 1504 4544 
L 1504 4767 
L 678 4767 
L 678 -1600 
L 1504 -1600 
z
" transform="scale(0.015625)"/>
       <path id="CMR17-41" d="M 2323 4378 
C 2291 4461 2278 4480 2214 4480 
C 2150 4480 2138 4461 2106 4378 
L 749 566 
C 627 223 371 153 147 153 
L 147 -13 
C 262 0 518 0 640 0 
C 800 0 1056 0 1210 -13 
L 1210 153 
C 909 153 864 361 864 439 
C 864 497 877 530 890 569 
L 1229 1536 
L 2906 1536 
L 3290 442 
C 3322 365 3322 352 3322 327 
C 3322 153 3046 153 2925 153 
L 2925 0 
C 3110 0 3443 0 3642 0 
C 3808 0 4128 0 4282 -13 
L 4282 153 
C 3942 153 3827 153 3744 387 
L 2323 4378 
z
M 2067 3893 
L 2848 1702 
L 1286 1702 
L 2067 3893 
z
" transform="scale(0.015625)"/>
       <path id="CMR17-5d" d="M 915 4767 
L 90 4767 
L 90 4544 
L 691 4544 
L 691 -1377 
L 90 -1377 
L 90 -1600 
L 915 -1600 
L 915 4767 
z
" transform="scale(0.015625)"/>
      </defs>
      <use xlink:href="#CMMI12-49" transform="scale(0.996264)"/>
      <use xlink:href="#CMR17-50" transform="translate(43.024176 -14.943915) scale(0.697382)"/>
      <use xlink:href="#CMR17-4f" transform="translate(86.83439 -14.943915) scale(0.697382)"/>
      <use xlink:href="#CMR17-43" transform="translate(137.034521 -14.943915) scale(0.697382)"/>
      <use xlink:href="#CMR17-5b" transform="translate(206.228565 0) scale(0.996264)"/>
      <use xlink:href="#CMR17-41" transform="translate(231.099624 0) scale(0.996264)"/>
      <use xlink:href="#CMR17-5d" transform="translate(300.172054 0) scale(0.996264)"/>
     </g>
    </g>
   </g>
   <g id="matplotlib.axis_2">
    <g id="ytick_1">
     <g id="line2d_13">
      <path d="M 78.839527 465.091924 
L 971.639527 465.091924 
" clip-path="url(#p221f6b7276)" style="fill: none; stroke: #b0b0b0; stroke-width: 0.8; stroke-linecap: square"/>
     </g>
     <g id="line2d_14">
      <defs>
       <path id="me4b126e56f" d="M 0 0 
L -3.5 0 
" style="stroke: #000000; stroke-width: 0.8"/>
      </defs>
      <g>
       <use xlink:href="#me4b126e56f" x="78.839527" y="465.091924" style="stroke: #000000; stroke-width: 0.8"/>
      </g>
     </g>
     <g id="text_8">
      <!-- $\mathdefault{0}$ -->
      <g transform="translate(61.201431 472.010423) scale(0.2 -0.2)">
       <use xlink:href="#CMR17-30" transform="scale(0.996264)"/>
      </g>
     </g>
    </g>
    <g id="ytick_2">
     <g id="line2d_15">
      <path d="M 78.839527 407.824065 
L 971.639527 407.824065 
" clip-path="url(#p221f6b7276)" style="fill: none; stroke: #b0b0b0; stroke-width: 0.8; stroke-linecap: square"/>
     </g>
     <g id="line2d_16">
      <g>
       <use xlink:href="#me4b126e56f" x="78.839527" y="407.824065" style="stroke: #000000; stroke-width: 0.8"/>
      </g>
     </g>
     <g id="text_9">
      <!-- $\mathdefault{5}$ -->
      <g transform="translate(61.201431 414.742563) scale(0.2 -0.2)">
       <use xlink:href="#CMR17-35" transform="scale(0.996264)"/>
      </g>
     </g>
    </g>
    <g id="ytick_3">
     <g id="line2d_17">
      <path d="M 78.839527 350.556205 
L 971.639527 350.556205 
" clip-path="url(#p221f6b7276)" style="fill: none; stroke: #b0b0b0; stroke-width: 0.8; stroke-linecap: square"/>
     </g>
     <g id="line2d_18">
      <g>
       <use xlink:href="#me4b126e56f" x="78.839527" y="350.556205" style="stroke: #000000; stroke-width: 0.8"/>
      </g>
     </g>
     <g id="text_10">
      <!-- $\mathdefault{10}$ -->
      <g transform="translate(52.063336 357.474704) scale(0.2 -0.2)">
       <use xlink:href="#CMR17-31" transform="scale(0.996264)"/>
       <use xlink:href="#CMR17-30" transform="translate(45.690477 0) scale(0.996264)"/>
      </g>
     </g>
    </g>
    <g id="ytick_4">
     <g id="line2d_19">
      <path d="M 78.839527 293.288346 
L 971.639527 293.288346 
" clip-path="url(#p221f6b7276)" style="fill: none; stroke: #b0b0b0; stroke-width: 0.8; stroke-linecap: square"/>
     </g>
     <g id="line2d_20">
      <g>
       <use xlink:href="#me4b126e56f" x="78.839527" y="293.288346" style="stroke: #000000; stroke-width: 0.8"/>
      </g>
     </g>
     <g id="text_11">
      <!-- $\mathdefault{15}$ -->
      <g transform="translate(52.063336 300.206844) scale(0.2 -0.2)">
       <use xlink:href="#CMR17-31" transform="scale(0.996264)"/>
       <use xlink:href="#CMR17-35" transform="translate(45.690477 0) scale(0.996264)"/>
      </g>
     </g>
    </g>
    <g id="ytick_5">
     <g id="line2d_21">
      <path d="M 78.839527 236.020486 
L 971.639527 236.020486 
" clip-path="url(#p221f6b7276)" style="fill: none; stroke: #b0b0b0; stroke-width: 0.8; stroke-linecap: square"/>
     </g>
     <g id="line2d_22">
      <g>
       <use xlink:href="#me4b126e56f" x="78.839527" y="236.020486" style="stroke: #000000; stroke-width: 0.8"/>
      </g>
     </g>
     <g id="text_12">
      <!-- $\mathdefault{20}$ -->
      <g transform="translate(52.063336 242.938984) scale(0.2 -0.2)">
       <use xlink:href="#CMR17-32" transform="scale(0.996264)"/>
       <use xlink:href="#CMR17-30" transform="translate(45.690477 0) scale(0.996264)"/>
      </g>
     </g>
    </g>
    <g id="ytick_6">
     <g id="line2d_23">
      <path d="M 78.839527 178.752627 
L 971.639527 178.752627 
" clip-path="url(#p221f6b7276)" style="fill: none; stroke: #b0b0b0; stroke-width: 0.8; stroke-linecap: square"/>
     </g>
     <g id="line2d_24">
      <g>
       <use xlink:href="#me4b126e56f" x="78.839527" y="178.752627" style="stroke: #000000; stroke-width: 0.8"/>
      </g>
     </g>
     <g id="text_13">
      <!-- $\mathdefault{25}$ -->
      <g transform="translate(52.063336 185.671125) scale(0.2 -0.2)">
       <use xlink:href="#CMR17-32" transform="scale(0.996264)"/>
       <use xlink:href="#CMR17-35" transform="translate(45.690477 0) scale(0.996264)"/>
      </g>
     </g>
    </g>
    <g id="ytick_7">
     <g id="line2d_25">
      <path d="M 78.839527 121.484767 
L 971.639527 121.484767 
" clip-path="url(#p221f6b7276)" style="fill: none; stroke: #b0b0b0; stroke-width: 0.8; stroke-linecap: square"/>
     </g>
     <g id="line2d_26">
      <g>
       <use xlink:href="#me4b126e56f" x="78.839527" y="121.484767" style="stroke: #000000; stroke-width: 0.8"/>
      </g>
     </g>
     <g id="text_14">
      <!-- $\mathdefault{30}$ -->
      <g transform="translate(52.063336 128.403265) scale(0.2 -0.2)">
       <use xlink:href="#CMR17-33" transform="scale(0.996264)"/>
       <use xlink:href="#CMR17-30" transform="translate(45.690477 0) scale(0.996264)"/>
      </g>
     </g>
    </g>
    <g id="ytick_8">
     <g id="line2d_27">
      <path d="M 78.839527 64.216907 
L 971.639527 64.216907 
" clip-path="url(#p221f6b7276)" style="fill: none; stroke: #b0b0b0; stroke-width: 0.8; stroke-linecap: square"/>
     </g>
     <g id="line2d_28">
      <g>
       <use xlink:href="#me4b126e56f" x="78.839527" y="64.216907" style="stroke: #000000; stroke-width: 0.8"/>
      </g>
     </g>
     <g id="text_15">
      <!-- $\mathdefault{35}$ -->
      <g transform="translate(52.063336 71.135406) scale(0.2 -0.2)">
       <use xlink:href="#CMR17-33" transform="scale(0.996264)"/>
       <use xlink:href="#CMR17-35" transform="translate(45.690477 0) scale(0.996264)"/>
      </g>
     </g>
    </g>
    <g id="text_16">
     <!-- $P\:[\unit{\MW}]\text{ or }S\:[\unit{\MW}]\text{ or }Q\:[\unit{\mega {\V\A\text{r}}}]$ -->
     <g transform="translate(25.857528 412.145298) rotate(-90) scale(0.25 -0.25)">
      <defs>
       <path id="CMMI12-50" d="M 1894 2023 
L 2970 2023 
C 3853 2023 4736 2673 4736 3401 
C 4736 3898 4314 4352 3507 4352 
L 1530 4352 
C 1408 4352 1350 4352 1350 4231 
C 1350 4167 1408 4167 1504 4167 
C 1894 4167 1894 4116 1894 4046 
C 1894 4034 1894 3995 1869 3899 
L 1005 472 
C 947 249 934 185 486 185 
C 365 185 301 185 301 70 
C 301 0 358 0 397 0 
C 518 0 646 0 768 0 
L 1517 0 
C 1638 0 1773 0 1894 0 
C 1946 0 2016 0 2016 121 
C 2016 185 1958 185 1862 185 
C 1478 185 1472 230 1472 293 
C 1472 325 1478 369 1485 401 
L 1894 2023 
z
M 2355 3930 
C 2413 4167 2438 4167 2688 4167 
L 3322 4167 
C 3802 4167 4198 4013 4198 3535 
C 4198 3369 4115 2827 3821 2534 
C 3712 2419 3405 2176 2822 2176 
L 1920 2176 
L 2355 3930 
z
" transform="scale(0.015625)"/>
       <path id="CMR17-4d" d="M 1338 4224 
C 1299 4320 1293 4320 1158 4320 
L 339 4320 
L 339 4160 
C 781 4160 851 4160 851 3875 
L 851 610 
C 851 451 851 153 339 153 
L 339 -13 
C 486 0 755 0 915 0 
C 1075 0 1344 0 1491 -13 
L 1491 153 
C 979 153 979 451 979 610 
L 979 4135 
L 986 4135 
L 2490 89 
C 2515 25 2528 -13 2579 -13 
C 2630 -13 2643 25 2669 89 
L 4186 4166 
L 4192 4166 
L 4192 438 
C 4192 153 4122 153 3680 153 
L 3680 -13 
C 3853 0 4198 0 4384 0 
C 4570 0 4922 0 5094 -13 
L 5094 153 
C 4653 153 4582 153 4582 438 
L 4582 3875 
C 4582 4160 4653 4160 5094 4160 
L 5094 4320 
L 4282 4320 
C 4147 4320 4141 4314 4102 4218 
L 2720 502 
L 1338 4224 
z
" transform="scale(0.015625)"/>
       <path id="CMR17-57" d="M 5523 3764 
C 5581 3936 5677 4160 6048 4160 
L 6048 4326 
C 5939 4326 5715 4326 5600 4326 
C 5440 4326 5158 4326 5005 4332 
L 5005 4160 
C 5293 4160 5414 4000 5414 3847 
C 5414 3802 5408 3777 5382 3707 
L 4390 555 
L 3347 3873 
C 3328 3937 3322 3963 3322 3988 
C 3322 4160 3603 4160 3725 4160 
L 3725 4326 
C 3539 4326 3219 4326 3021 4326 
C 2861 4326 2573 4326 2426 4332 
L 2426 4160 
C 2720 4160 2797 4141 2861 4027 
C 2886 3969 2989 3638 2989 3619 
C 2989 3593 2976 3555 2970 3536 
L 2029 561 
L 986 3867 
C 954 3957 954 3969 954 3982 
C 954 4160 1235 4160 1363 4160 
L 1363 4326 
C 1178 4326 858 4326 659 4326 
C 493 4326 211 4326 58 4332 
L 58 4160 
C 442 4160 467 4122 531 3918 
L 1779 -20 
C 1811 -115 1811 -128 1869 -128 
C 1920 -128 1939 -115 1965 -26 
L 3053 3433 
L 4141 -26 
C 4166 -115 4186 -128 4237 -128 
C 4294 -128 4294 -115 4326 -20 
L 5523 3764 
z
" transform="scale(0.015625)"/>
       <path id="CMR17-6f" d="M 2758 1356 
C 2758 2176 2163 2816 1466 2816 
C 768 2816 173 2176 173 1356 
C 173 551 768 -64 1466 -64 
C 2163 -64 2758 551 2758 1356 
z
M 1466 51 
C 1165 51 909 230 762 480 
C 602 767 582 1126 582 1408 
C 582 1677 595 2010 762 2298 
C 890 2509 1139 2714 1466 2714 
C 1754 2714 1997 2554 2150 2330 
C 2349 2029 2349 1607 2349 1408 
C 2349 1158 2336 775 2163 467 
C 1984 173 1709 51 1466 51 
z
" transform="scale(0.015625)"/>
       <path id="CMR17-72" d="M 960 1497 
C 960 2112 1222 2688 1702 2688 
C 1747 2688 1792 2682 1837 2662 
C 1837 2662 1696 2617 1696 2452 
C 1696 2298 1818 2234 1914 2234 
C 1990 2234 2131 2279 2131 2458 
C 2131 2663 1926 2790 1709 2790 
C 1222 2790 1011 2317 947 2093 
L 941 2093 
L 941 2790 
L 198 2720 
L 198 2554 
C 576 2554 634 2515 634 2208 
L 634 428 
C 634 184 608 153 198 153 
L 198 -13 
C 352 0 646 0 813 0 
C 998 0 1325 0 1498 -13 
L 1498 153 
C 1037 153 960 153 960 440 
L 960 1497 
z
" transform="scale(0.015625)"/>
       <path id="CMMI12-53" d="M 4064 4423 
C 4064 4480 4019 4480 4006 4480 
C 3981 4480 3974 4474 3898 4378 
C 3859 4333 3597 4001 3590 3995 
C 3379 4410 2957 4480 2688 4480 
C 1875 4480 1139 3743 1139 3025 
C 1139 2549 1427 2269 1741 2161 
C 1811 2135 2189 2033 2381 1989 
C 2707 1900 2790 1875 2925 1735 
C 2950 1703 3078 1557 3078 1258 
C 3078 667 2528 57 1888 57 
C 1363 57 781 280 781 991 
C 781 1112 806 1265 826 1328 
C 826 1348 832 1378 832 1391 
C 832 1417 819 1449 768 1449 
C 710 1449 704 1436 678 1328 
L 352 24 
C 352 18 326 -64 326 -71 
C 326 -128 378 -128 390 -128 
C 416 -128 422 -122 499 -26 
L 794 356 
C 947 126 1280 -128 1875 -128 
C 2701 -128 3456 666 3456 1460 
C 3456 1728 3392 1963 3149 2197 
C 3014 2331 2899 2363 2310 2516 
C 1882 2630 1824 2649 1709 2751 
C 1600 2858 1517 3011 1517 3227 
C 1517 3761 2061 4308 2669 4308 
C 3296 4308 3590 3926 3590 3323 
C 3590 3158 3558 2986 3558 2961 
C 3558 2903 3610 2903 3629 2903 
C 3686 2903 3693 2922 3718 3024 
L 4064 4423 
z
" transform="scale(0.015625)"/>
       <path id="CMMI12-51" d="M 2726 45 
C 3827 490 4646 1663 4646 2829 
C 4646 3893 3955 4544 3059 4544 
C 1690 4544 307 3062 307 1573 
C 307 561 973 -128 1901 -128 
C 2118 -128 2330 -96 2534 -33 
C 2496 -411 2496 -442 2496 -562 
C 2496 -744 2496 -1216 3008 -1216 
C 3770 -1216 4051 -37 4051 2 
C 4051 39 4026 64 3994 64 
C 3955 64 3942 34 3923 -36 
C 3782 -429 3450 -654 3168 -654 
C 2842 -654 2758 -435 2726 45 
z
M 1574 77 
C 1069 252 826 787 826 1379 
C 826 1831 992 2689 1414 3340 
C 1888 4075 2522 4404 3021 4404 
C 3686 4404 4134 3862 4134 3024 
C 4134 2547 3910 948 2707 240 
C 2675 571 2586 960 2163 960 
C 1818 960 1523 609 1523 291 
C 1523 220 1549 123 1574 77 
z
M 2547 156 
C 2317 52 2118 12 1939 12 
C 1875 12 1651 12 1651 298 
C 1651 533 1875 832 2163 832 
C 2483 832 2554 611 2554 286 
C 2554 246 2554 194 2547 156 
z
" transform="scale(0.015625)"/>
       <path id="CMR17-56" d="M 3776 3745 
C 3834 3886 3936 4160 4365 4160 
L 4365 4332 
C 4218 4319 4051 4319 3891 4319 
C 3738 4319 3475 4319 3328 4332 
L 3328 4160 
C 3648 4160 3661 3936 3661 3898 
C 3661 3827 3642 3783 3622 3732 
L 2362 446 
L 1043 3886 
C 1024 3931 1011 3963 1011 3994 
C 1011 4160 1267 4160 1402 4160 
L 1402 4319 
C 1197 4319 896 4319 685 4319 
C 518 4319 218 4319 64 4332 
L 64 4160 
C 435 4160 506 4135 582 3931 
L 2106 -26 
C 2138 -115 2144 -128 2214 -128 
C 2285 -128 2291 -115 2323 -26 
L 3776 3745 
z
" transform="scale(0.015625)"/>
      </defs>
      <use xlink:href="#CMMI12-50" transform="scale(0.996264)"/>
      <use xlink:href="#CMR17-5b" transform="translate(98.565028 0) scale(0.996264)"/>
      <use xlink:href="#CMR17-4d" transform="translate(123.436086 0) scale(0.996264)"/>
      <use xlink:href="#CMR17-57" transform="translate(208.123027 0) scale(0.996264)"/>
      <use xlink:href="#CMR17-5d" transform="translate(304.520843 0) scale(0.996264)"/>
      <use xlink:href="#CMR17-6f" transform="translate(359.467868 0) scale(0.996264)"/>
      <use xlink:href="#CMR17-72" transform="translate(405.158345 0) scale(0.996264)"/>
      <use xlink:href="#CMMI12-53" transform="translate(470.515079 0) scale(0.996264)"/>
      <use xlink:href="#CMR17-5b" transform="translate(558.448725 0) scale(0.996264)"/>
      <use xlink:href="#CMR17-4d" transform="translate(583.319783 0) scale(0.996264)"/>
      <use xlink:href="#CMR17-57" transform="translate(668.006724 0) scale(0.996264)"/>
      <use xlink:href="#CMR17-5d" transform="translate(764.40454 0) scale(0.996264)"/>
      <use xlink:href="#CMR17-6f" transform="translate(819.351565 0) scale(0.996264)"/>
      <use xlink:href="#CMR17-72" transform="translate(865.042042 0) scale(0.996264)"/>
      <use xlink:href="#CMMI12-51" transform="translate(930.398776 0) scale(0.996264)"/>
      <use xlink:href="#CMR17-5b" transform="translate(1029.798382 0) scale(0.996264)"/>
      <use xlink:href="#CMR17-4d" transform="translate(1054.66944 0) scale(0.996264)"/>
      <use xlink:href="#CMR17-56" transform="translate(1139.356381 0) scale(0.996264)"/>
      <use xlink:href="#CMR17-41" transform="translate(1198.019101 0) scale(0.996264)"/>
      <use xlink:href="#CMR17-72" transform="translate(1267.091531 0) scale(0.996264)"/>
      <use xlink:href="#CMR17-5d" transform="translate(1302.372299 0) scale(0.996264)"/>
     </g>
    </g>
   </g>
   <g id="line2d_29">
    <path d="M 119.421345 461.982766 
L 121.858691 461.380276 
L 125.920936 460.091696 
L 131.608077 458.021345 
L 141.357463 454.21206 
L 158.418888 447.273048 
L 181.979904 437.434351 
L 207.978266 426.33736 
L 234.789076 414.657574 
L 262.412336 402.38143 
L 290.035596 389.861537 
L 317.658855 377.098147 
L 345.282115 364.090703 
L 372.905374 350.838308 
L 400.528634 337.339911 
L 428.151894 323.594401 
L 455.775153 309.600648 
L 483.398413 295.357527 
L 511.021673 280.863934 
L 538.644932 266.118791 
L 566.268192 251.121048 
L 593.891451 235.869688 
L 621.514711 220.363727 
L 649.137971 204.602212 
L 676.76123 188.584224 
L 704.38449 172.308874 
L 732.00775 155.775306 
L 759.631009 138.982692 
L 787.254269 121.930233 
L 814.877528 104.61716 
L 842.500788 87.042728 
L 870.124048 69.20622 
L 897.747307 51.106943 
L 925.370567 32.744229 
L 931.057709 28.930909 
L 931.057709 28.930909 
" clip-path="url(#p221f6b7276)" style="fill: none; stroke: #000000; stroke-width: 1.2; stroke-linecap: square"/>
   </g>
   <g id="line2d_30">
    <path d="M 119.421345 463.549091 
L 147.857053 451.928403 
L 176.292762 440.066226 
L 204.72847 427.962559 
L 233.164179 415.617402 
L 261.599887 403.030755 
L 290.035596 390.202619 
L 318.471304 377.132992 
L 346.907012 363.821876 
L 375.342721 350.26927 
L 403.778429 336.475175 
L 432.214138 322.439589 
L 460.649846 308.162514 
L 489.898003 293.225584 
L 519.146161 278.033168 
L 548.394318 262.585266 
L 577.642475 246.881877 
L 606.890632 230.923002 
L 636.13879 214.708641 
L 665.386947 198.238793 
L 694.635104 181.513459 
L 723.883261 164.532639 
L 753.131419 147.296332 
L 782.379576 129.804539 
L 811.627733 112.05726 
L 840.87589 94.054494 
L 870.124048 75.796242 
L 899.372205 57.282503 
L 929.432811 37.988264 
L 931.057709 36.937644 
L 931.057709 36.937644 
" clip-path="url(#p221f6b7276)" style="fill: none; stroke-dasharray: 4.44,1.92; stroke-dashoffset: 0; stroke: #000000; stroke-width: 1.2"/>
   </g>
   <g id="line2d_31">
    <path d="M 119.421345 462.392567 
L 150.2944 462.077839 
L 181.167455 461.545873 
L 212.04051 460.796668 
L 242.913564 459.830224 
L 273.786619 458.646542 
L 304.659674 457.245622 
L 335.532729 455.627462 
L 366.405784 453.792064 
L 397.278839 451.739428 
L 428.151894 449.469552 
L 459.024949 446.982438 
L 490.710452 444.203985 
L 522.395956 441.196709 
L 554.08146 437.96061 
L 585.766963 434.495689 
L 617.452467 430.801945 
L 649.137971 426.879378 
L 680.823474 422.727988 
L 712.508978 418.347776 
L 744.194482 413.738741 
L 775.879985 408.900884 
L 807.565489 403.834203 
L 839.250993 398.538701 
L 870.936497 393.014375 
L 902.622 387.261227 
L 931.057709 381.903322 
L 931.057709 381.903322 
" clip-path="url(#p221f6b7276)" style="fill: none; stroke-dasharray: 8.32,2.08,1.3,2.08; stroke-dashoffset: 0; stroke: #000000; stroke-width: 1.3"/>
   </g>
   <g id="patch_3">
    <path d="M 78.839527 485.28 
L 78.839527 7.2 
" style="fill: none; stroke: #000000; stroke-width: 0.8; stroke-linejoin: miter; stroke-linecap: square"/>
   </g>
   <g id="patch_4">
    <path d="M 971.639527 485.28 
L 971.639527 7.2 
" style="fill: none; stroke: #000000; stroke-width: 0.8; stroke-linejoin: miter; stroke-linecap: square"/>
   </g>
   <g id="patch_5">
    <path d="M 78.839527 485.28 
L 971.639527 485.28 
" style="fill: none; stroke: #000000; stroke-width: 0.8; stroke-linejoin: miter; stroke-linecap: square"/>
   </g>
   <g id="patch_6">
    <path d="M 78.839527 7.2 
L 971.639527 7.2 
" style="fill: none; stroke: #000000; stroke-width: 0.8; stroke-linejoin: miter; stroke-linecap: square"/>
   </g>
   <g id="legend_1">
    <g id="patch_7">
     <path d="M 92.839527 106.826901 
L 212.11941 106.826901 
Q 216.11941 106.826901 216.11941 102.826901 
L 216.11941 21.2 
Q 216.11941 17.2 212.11941 17.2 
L 92.839527 17.2 
Q 88.839527 17.2 88.839527 21.2 
L 88.839527 102.826901 
Q 88.839527 106.826901 92.839527 106.826901 
z
" style="fill: #ffffff; opacity: 0.8; stroke: #cccccc; stroke-linejoin: miter"/>
    </g>
    <g id="line2d_32">
     <path d="M 96.839527 32.2 
L 116.839527 32.2 
L 136.839527 32.2 
" style="fill: none; stroke: #000000; stroke-width: 1.2; stroke-linecap: square"/>
    </g>
    <g id="text_17">
     <!-- $S_\text{VSC-S}$ -->
     <g transform="translate(152.839527 39.2) scale(0.2 -0.2)">
      <defs>
       <path id="CMR17-53" d="M 2803 4290 
C 2803 4404 2797 4411 2758 4411 
C 2720 4411 2707 4385 2682 4328 
L 2490 3907 
C 2246 4257 1875 4416 1472 4416 
C 819 4416 294 3901 294 3253 
C 294 3056 339 2776 557 2510 
C 794 2218 1018 2167 1530 2033 
C 1722 1982 2042 1899 2106 1874 
C 2470 1722 2662 1341 2662 985 
C 2662 527 2336 38 1779 38 
C 1094 38 454 419 410 1311 
C 403 1413 397 1419 352 1419 
C 301 1419 294 1413 294 1285 
L 294 -1 
C 294 -115 301 -122 339 -122 
C 384 -122 397 -90 486 108 
C 493 127 493 140 614 381 
C 934 -39 1472 -128 1779 -128 
C 2477 -128 2970 451 2970 1124 
C 2970 1454 2848 1708 2778 1823 
C 2509 2230 2221 2306 1914 2382 
C 1869 2402 1856 2402 1498 2490 
C 1152 2579 1005 2624 845 2796 
C 666 2992 602 3196 602 3399 
C 602 3812 934 4263 1478 4263 
C 2157 4263 2579 3786 2675 2993 
C 2694 2878 2701 2872 2746 2872 
C 2803 2872 2803 2891 2803 2999 
L 2803 4290 
z
" transform="scale(0.015625)"/>
       <path id="CMR17-2d" d="M 1632 1216 
L 1632 1496 
L 26 1496 
L 26 1216 
L 1632 1216 
z
" transform="scale(0.015625)"/>
      </defs>
      <use xlink:href="#CMMI12-53" transform="scale(0.996264)"/>
      <use xlink:href="#CMR17-56" transform="translate(59.994488 -14.943915) scale(0.697382)"/>
      <use xlink:href="#CMR17-53" transform="translate(108.344973 -14.943915) scale(0.697382)"/>
      <use xlink:href="#CMR17-43" transform="translate(143.971581 -14.943915) scale(0.697382)"/>
      <use xlink:href="#CMR17-2d" transform="translate(190.528286 -14.943915) scale(0.697382)"/>
      <use xlink:href="#CMR17-53" transform="translate(211.581356 -14.943915) scale(0.697382)"/>
     </g>
    </g>
    <g id="line2d_33">
     <path d="M 96.839527 60.075634 
L 116.839527 60.075634 
L 136.839527 60.075634 
" style="fill: none; stroke-dasharray: 4.44,1.92; stroke-dashoffset: 0; stroke: #000000; stroke-width: 1.2"/>
    </g>
    <g id="text_18">
     <!-- $P_\text{VSC-S}$ -->
     <g transform="translate(152.839527 67.075634) scale(0.2 -0.2)">
      <use xlink:href="#CMMI12-50" transform="scale(0.996264)"/>
      <use xlink:href="#CMR17-56" transform="translate(62.877232 -14.943915) scale(0.697382)"/>
      <use xlink:href="#CMR17-53" transform="translate(111.227717 -14.943915) scale(0.697382)"/>
      <use xlink:href="#CMR17-43" transform="translate(146.854326 -14.943915) scale(0.697382)"/>
      <use xlink:href="#CMR17-2d" transform="translate(193.411031 -14.943915) scale(0.697382)"/>
      <use xlink:href="#CMR17-53" transform="translate(214.464101 -14.943915) scale(0.697382)"/>
     </g>
    </g>
    <g id="line2d_34">
     <path d="M 96.839527 87.951267 
L 116.839527 87.951267 
L 136.839527 87.951267 
" style="fill: none; stroke-dasharray: 8.32,2.08,1.3,2.08; stroke-dashoffset: 0; stroke: #000000; stroke-width: 1.3"/>
    </g>
    <g id="text_19">
     <!-- $Q_\text{VSC-S}$ -->
     <g transform="translate(152.839527 94.951267) scale(0.2 -0.2)">
      <use xlink:href="#CMMI12-51" transform="scale(0.996264)"/>
      <use xlink:href="#CMR17-56" transform="translate(77.260399 -14.943915) scale(0.697382)"/>
      <use xlink:href="#CMR17-53" transform="translate(125.610884 -14.943915) scale(0.697382)"/>
      <use xlink:href="#CMR17-43" transform="translate(161.237492 -14.943915) scale(0.697382)"/>
      <use xlink:href="#CMR17-2d" transform="translate(207.794197 -14.943915) scale(0.697382)"/>
      <use xlink:href="#CMR17-53" transform="translate(228.847267 -14.943915) scale(0.697382)"/>
     </g>
    </g>
   </g>
  </g>
 </g>
 <defs>
  <clipPath id="p221f6b7276">
   <rect x="78.839527" y="7.2" width="892.8" height="478.08"/>
  </clipPath>
 </defs>
</svg>
